<svg xmlns="http://www.w3.org/2000/svg" width="250px" height="80px" viewBox="0 0 566.93 186.37"><title>m</title><path d="M49.18,112.44A196.46,196.46,0,0,0,83.32,89.21C93.86,80.27,103.49,70.48,111,58.76c3.66-5.75,6.84-11.77,7.87-18.62.86-5.69.41-11.13-4-15.58a75.63,75.63,0,0,1,12.31,9.57c.28.39.11.69-.22.91-1.09.72-.76,1.39,0,2-.38-.42-1-.92-.32-1.57s1.12-.1,1.6.29a2.79,2.79,0,0,0,1.43.84c5.71,5,6.77,11.4,5.4,18.44-1.7,8.68-6,16.2-11,23.32-8.71,12.3-19.42,22.69-31.14,32.07a203.35,203.35,0,0,1-44.59,27.29A126.23,126.23,0,0,1,19.19,147c-1.84.32-3.71.46-5.56.69a9.4,9.4,0,0,1-7.48-2.41A16.43,16.43,0,0,1,0,132.64c-.08-3.61,1.39-5,5-5.32,9.32-.84,18.2-3.48,26.87-6.89a135.65,135.65,0,0,0,15.63-7.22,3.56,3.56,0,0,1,.72-.23c.65,0,.41.44.41.74,0,1.38.41,1.73,1.74,1.66a1.24,1.24,0,0,1-1.54-.65c-.3-.58-.06-.86.54-1.17S48.88,112.9,49.18,112.44Z" style="fill:#168dd0"/><path d="M117.44,100.53a150.88,150.88,0,0,0,12.84-15.8c4.61-6.81,8.59-13.92,10.34-22.09.77-3.61.69-7.64-.72-13.17a76.15,76.15,0,0,1,6.87,12.22c1.48,3.36,3.13,6.7,3.77,10.34,1.06,6-.45,11.63-2.78,17.1-4.39,10.31-11,19.09-18.65,27.18a196.78,196.78,0,0,1-66.92,46.58c-.57.25-1.16.45-1.74.68a6,6,0,0,1-2.31.09c-3.48-.42-6.16,1-8.34,3.6-6.28,2.56-12.39,2.88-18.07-1.54a12.31,12.31,0,0,1-4.44-6.05c-.94-3,.13-5.23,3.18-6.17,3.41-1,6.87-1.93,10.26-3.08a184.93,184.93,0,0,0,41.54-20.84,202.52,202.52,0,0,0,29.2-23.18,3.09,3.09,0,0,1,.37-.26c.76.28.42.93.43,1.42a6.65,6.65,0,0,0,2.34,5.22,5.94,5.94,0,0,0,9.34-2.62,4.66,4.66,0,0,0-2.08-5.26,4,4,0,0,0-4.5.44c-1.7,1.5-1.31,4.45.69,5.19,1.31.48,2.21-.12,2.41-1.59-.19-.1-.29,0-.35.16-.28.68-.51,1.47-1.47,1.3a1.93,1.93,0,0,1-1.5-1.79,2.61,2.61,0,0,1,1.17-2.7,2.75,2.75,0,0,1,3.22,0,3.32,3.32,0,0,1,1.58,3.62,4.12,4.12,0,0,1-3.1,3.36c-3.06.92-6.28-1.64-6.41-5a5.76,5.76,0,0,1,5.25-5.91c5.38-.55,8.73,4.67,7,8.69a3,3,0,0,0-.33,1c1.77-2.28,1.89-4.5.43-7.31s-3.81-3.66-6.69-3.73C118.63,100.69,118,101.06,117.44,100.53Z" style="fill:#1172b7"/><path d="M82.25,11.54c7.75,1.33,15.27,3.33,22.16,7.06,5.13,2.77,7.08,7.52,6.94,13.17-.18,7.24-3.13,13.59-6.78,19.63-7.82,12.91-18.39,23.37-30,32.86a182,182,0,0,1-27.3,18.47c-4.74,2.62-9.38,1.45-12.23-3.16A13.86,13.86,0,0,1,33.24,88.1a7.74,7.74,0,0,1,4-4.71A150.93,150.93,0,0,0,72.37,56.8c5.86-6,11.13-12.46,14.93-20,2.21-4.39,3.86-8.93,3.66-14s-2.78-8.65-7.45-10.68c-.19-.09-.39-.16-.57-.25Z" style="fill:#1dadeb"/><path d="M52.79,12.71a44.24,44.24,0,0,1,8.38-1.87,41.86,41.86,0,0,1,9.14-.63c5,.41,10.49,3.52,11.5,9.65a18.93,18.93,0,0,1-1.52,10.05A59.09,59.09,0,0,1,68.87,47.6,133.26,133.26,0,0,1,21,81.57c-.85.37-1.75.64-2.62,1-3.1,1.25-5.41.26-6.53-2.9-1.31-3.71-1-7.46-.13-11.2a19,19,0,0,1,.94-2.62A5.54,5.54,0,0,1,16,62.55,90.77,90.77,0,0,0,43.26,45.94c5.34-4.65,10.19-9.78,13.69-16a18.6,18.6,0,0,0,2.84-9.26,7.25,7.25,0,0,0-5.2-7.31Z" style="fill:#41c5f0"/><path d="M153.1,83.11A29,29,0,0,1,154.38,91a81.87,81.87,0,0,1-.06,14.77c-.74,7-4,13.12-7.84,18.9-8.08,12.16-18.54,22-30,30.86-3,2.34-6.21,4.51-9.34,6.72a13.58,13.58,0,0,1-6.46,2.49c-2.62.27-5-.26-6.56-2.62s-1-4.87.54-7.14a13.28,13.28,0,0,1,3.87-3.56,186.12,186.12,0,0,0,33.17-27.84c7.52-8.09,14.24-16.75,18.56-27A32.38,32.38,0,0,0,153.1,83.11Z" style="fill:#0d5eaa"/><path d="M27.12,25.83A69.94,69.94,0,0,1,44.05,15.77c2.57-1.06,6.19,2,6.39,5.23s-1,6.12-2.65,8.8c-3.9,6.39-9.27,11.39-15.28,15.75a3.24,3.24,0,0,1-4.16-.43c-2.83-2.43-4.14-5.75-5.18-9.21-.2-.66.28-1,.75-1.39a14.94,14.94,0,0,0,4.28-4.87C29.07,27.89,28.8,26.91,27.12,25.83Z" style="fill:#1dadeb"/><path d="M122.45,160.08c.15-2.23,1.41-3.94,2.7-5.62,2-2.58,4.55-4.51,6.82-6.78,7.22-7.2,13.84-14.85,18.24-24.17.22-.46.42-.94.63-1.41.63-.07.39.34.35.63-3.59,12.57-9.47,23.84-18.85,33.09-2.38,2.34-4.58,5-7.65,6.5a.42.42,0,0,1-.6-.44C124.13,160.72,123.38,160.33,122.45,160.08Z" style="fill:#0a4d8e"/><path d="M117.44,100.53a10.39,10.39,0,0,1,4.3,0c4.13.86,7.51,6.81,4.38,11.33-.31.45-.6,1-1.33,1-.3-.92.38-1.58.62-2.31a6,6,0,0,0-1.8-6.87,6.49,6.49,0,0,0-7.16-.51,5.31,5.31,0,0,0-2.16,6,4.6,4.6,0,0,0,4.88,3.49,3.83,3.83,0,0,0,3.57-4.4,2.8,2.8,0,0,0-2-2.34,2.25,2.25,0,0,0-2.67.71,2.14,2.14,0,0,0-.32,2.47c.27.51.56,1.06,1.25,1s.68-.67.67-1.2.16-.93.8-.86.72.49.75,1a2,2,0,0,1-1.23,1.84,2.54,2.54,0,0,1-2.66-.17,3.69,3.69,0,0,1-1.38-4.15,4.41,4.41,0,0,1,3.4-2.62c3-.42,4.9,2.15,5.26,4.23.44,2.47-1.75,5.42-4.28,6.1-5,1.34-8.82-2.45-8.45-7.25,0-.29.23-.6,0-.89Z" style="fill:#1172b7"/><path d="M49.8,167.26c1.12-2.7,3.42-3.67,6.07-4a14.74,14.74,0,0,1,4.58.35A71.33,71.33,0,0,1,49.8,167.26Z" style="fill:#1172b7"/><path d="M129.62,36.6c-.7.53-1.09,0-1.56-.42s-.67-1-1.23-.53.23.92.49,1.35.72.46.55,1c-2.16-.88-2.3-1.61-.73-3.86A13.49,13.49,0,0,1,129.62,36.6Z" style="fill:#168dd0"/><path d="M49.18,112.44c.56.39,1.11.78.92,1.6-.07.29-.16.51-.49.3s-.16-.78-.57-.3.08.66.35.89c.92.76,1.28-.56,2.33-.59-.45.86-.84,1.48-1.77,1.47a1.75,1.75,0,0,1-1.71-1.49c-.12-.45.31-.9,0-1.34A1.58,1.58,0,0,1,49.18,112.44Z" style="fill:#168dd0"/><path d="M122.45,160.08c1.39-.37,2.06.1,2,1.44,0,.34,0,.61.29.8C122.8,162.89,122.08,162.17,122.45,160.08Z" style="fill:#0a4d8e"/><path d="M151.19,122.73c-.09-.23,0-.55-.35-.63l1.14-3.24A8.37,8.37,0,0,1,151.19,122.73Z" style="fill:#0a4d8e"/><path d="M44.25,115.83c1,.23,1.49,1.13,2.15,1.8a1.44,1.44,0,0,1,.07,2.2,1.3,1.3,0,0,1-1.93-.07,1.4,1.4,0,0,1-.26-2.22c.69.3.16.75.22,1.1s.19.7.57.83.79-.12,1-.47.1-.68-.19-.94l-2.08-1.81Z" style="fill:#168dd0"/><g style="isolation:isolate"><g style="isolation:isolate"><path d="M227.4,15.25c18.06,0,29.33,7.39,34.25,20.53,1.18,3.41.36,5.17-3.16,6.34l-12.56,4.46c-3.63,1.05-5,.47-6.33-3.17-2.12-5.28-5.63-7.63-12.2-7.63-9.27,0-12.91,4-12.91,12.21V69.34c0,8.21,3.64,12.2,12.91,12.2,6.57,0,10.32-2.58,12.2-7.63,1.4-3.63,2.81-4.45,6.33-3.16l12.56,4.45c3.52,1.18,4.34,2.94,3.16,6.34-4.92,13.14-16.19,20.53-34.25,20.53-23.12,0-36.14-12.55-36.14-32.85V48.1C191.26,27.81,204.28,15.25,227.4,15.25Z" style="fill:#1172b7"/><path d="M303.77,15.25c23.11,0,36,12.56,36,32.85V69.22c0,20.3-12.91,32.85-36,32.85s-36.13-12.55-36.13-32.85V48.1C267.64,27.81,280.54,15.25,303.77,15.25Zm0,20.53c-8.21,0-12.9,3.88-12.9,11.27V70.28c0,7.39,4.69,11.26,12.9,11.26s12.79-3.87,12.79-11.26V47.05C316.56,39.66,311.87,35.78,303.77,35.78Z" style="fill:#1172b7"/><path d="M417.34,45.29c0,11.49-4.69,19.71-12.67,24.17a30.64,30.64,0,0,1,3.17,5L418.4,94.56c1.64,3.17.82,5.75-3,5.75H402.68c-6.22,0-8.92-1.52-10.8-5.63l-7.51-16.07c-2-4-4-6-8.8-6h-2.69V95.39c0,3.63-1.18,4.92-4.93,4.92H354.69c-3.75,0-5-1.29-5-4.92V21.94c0-3.64,1.29-4.93,5-4.93h33.44C405.84,17,417.34,27.1,417.34,45.29Zm-31.79-7.75H372.88V53h12.67c4.92,0,7.74-3.05,7.74-7.86S390.59,37.54,385.55,37.54Z" style="fill:#1172b7"/><path d="M498.18,100.31H485.51c-6.1,0-7.86-1.29-8.8-4.92L474,86.94H448.67L446,95.39c-1.18,3.63-2.7,4.92-8.57,4.92H425.08c-3.63,0-4.34-1.64-3.16-4.81l27-74.38c1.18-3.4,2.7-4.11,6.1-4.11h13.38c3.4,0,4.93.82,6.1,3.87l27.1,74.62C502.75,98.67,501.7,100.31,498.18,100.31ZM461.81,38.37h-1.18a62.23,62.23,0,0,1-2.22,16.3l-4.35,13.85h14.67l-4.34-13.73A73.53,73.53,0,0,1,461.81,38.37Z" style="fill:#1172b7"/><path d="M531.14,21.94V79.78h28.28c3.64,0,4.93,1.17,4.93,4.93V95.39c0,3.63-1.29,4.92-4.93,4.92H513c-3.75,0-5.05-1.29-5.05-4.92V21.94c0-3.64,1.3-4.93,5.05-4.93h13.26C530,17,531.14,18.3,531.14,21.94Z" style="fill:#1172b7"/></g><g style="isolation:isolate"><path d="M236.94,112.93v49.54c0,2.46-.87,3.33-3.32,3.33h-9a3.32,3.32,0,0,1-3.24-1.59l-12.19-18.75c-3.48-5.46-4.82-9.18-7-16.3h-.63c1.66,7.59,2.61,11.63,2.61,20.41v12.9c0,2.46-.87,3.33-3.41,3.33h-8c-2.53,0-3.4-.87-3.4-3.33V112.93c0-2.45.87-3.32,3.4-3.32h9.34c1.82,0,2.61.48,3.32,1.58l13,20.26c3.48,5.46,4.12,8.47,6.65,14.48h.63c-2.53-8.15-3.56-12-3.56-20v-13c0-2.45.79-3.32,3.32-3.32h8.08C236.07,109.61,236.94,110.48,236.94,112.93Z" style="fill:#1dadeb"/><path d="M284.81,112.93v7.13c0,2.53-.87,3.4-3.4,3.4H260.52v7h16.69c2.54,0,3.41.87,3.41,3.33V141c0,2.53-.87,3.4-3.41,3.4H260.52V152h21.6c2.45,0,3.32.79,3.32,3.32v7.2c0,2.46-.87,3.33-3.32,3.33H248.25c-2.53,0-3.4-.87-3.4-3.33V112.93c0-2.45.87-3.32,3.4-3.32h33.16C283.94,109.61,284.81,110.48,284.81,112.93Z" style="fill:#1dadeb"/><path d="M334.26,112.93v7.13c0,2.53-.87,3.4-3.4,3.4H319.15v39c0,2.46-.87,3.33-3.4,3.33H306.8c-2.53,0-3.32-.87-3.32-3.33v-39H291.69c-2.53,0-3.32-.87-3.32-3.4v-7.13c0-2.45.79-3.32,3.32-3.32h39.17C333.39,109.61,334.26,110.48,334.26,112.93Z" style="fill:#1dadeb"/><path d="M408.41,112.86,395.82,163c-.55,2.29-1.82,2.77-4,2.77h-9.26c-2.29,0-3.64-.56-4.11-2.62l-4.28-18.43a76.6,76.6,0,0,1-1.5-14.25H372a80.34,80.34,0,0,1-1.74,14.25L366.07,163c-.63,2.29-1.9,2.77-4.11,2.77h-9.1c-2.3,0-3.64-.48-4.12-2.62l-12.5-50.32c-.56-2.22-.32-3.25,2.14-3.25h9.73c2.77,0,3.95.48,4.43,2.93L356,133.27a116.88,116.88,0,0,1,1.11,14h.55a88.47,88.47,0,0,1,1.51-14l4.9-20.73c.56-2.53,1.9-2.93,4.43-2.93h8.55c2.45,0,3.88.48,4.43,2.93l4.83,20.73a102.36,102.36,0,0,1,1.5,14h.63c.08-2.22.56-9.66,1.19-14L393,112.54c.47-2.45,1.66-2.93,4.51-2.93h8.78C408.72,109.61,409,110.64,408.41,112.86Z" style="fill:#1dadeb"/><path d="M435.23,108.42c15.59,0,24.29,8.47,24.29,22.16v14.25c0,13.68-8.7,22.15-24.29,22.15s-24.38-8.47-24.38-22.15V130.58C410.85,116.89,419.56,108.42,435.23,108.42Zm0,13.85c-5.54,0-8.71,2.61-8.71,7.6v15.67c0,5,3.17,7.59,8.71,7.59s8.62-2.61,8.62-7.59V129.87C443.85,124.88,440.69,122.27,435.23,122.27Z" style="fill:#1dadeb"/><path d="M511.82,128.68c0,7.76-3.16,13.3-8.54,16.3a20.54,20.54,0,0,1,2.13,3.41l7.12,13.53c1.11,2.13.56,3.88-2,3.88h-8.55c-4.19,0-6-1-7.28-3.8l-5.06-10.84c-1.35-2.69-2.7-4-5.94-4h-1.82v15.35c0,2.46-.79,3.33-3.32,3.33h-8.95c-2.53,0-3.4-.87-3.4-3.33V112.93c0-2.45.87-3.32,3.4-3.32h22.56C504.07,109.61,511.82,116.42,511.82,128.68Zm-21.44-5.22h-8.55V133.9h8.55c3.32,0,5.22-2.05,5.22-5.3S493.78,123.46,490.38,123.46Z" style="fill:#1dadeb"/><path d="M563.41,165.8h-8.54c-4.2,0-5.7-.56-7-3.33l-6.88-14.16c-1.27-2.54-2.38-4-5.38-4h-1.43v18.12c0,2.46-.79,3.33-3.32,3.33h-8.94c-2.54,0-3.41-.87-3.41-3.33V112.93c0-2.45.87-3.32,3.41-3.32h8.94c2.53,0,3.32.87,3.32,3.32V130.5h1.74l11.4-18c1.5-2.45,2.21-2.93,6.33-2.93h9.1c2.37,0,3.17,1.43,1.9,3.48L550.2,136a15.91,15.91,0,0,1,4.82,6.1l10.45,19.78C566.58,164.05,566,165.8,563.41,165.8Z" style="fill:#1dadeb"/></g></g></svg>